<svg xmlns="http://www.w3.org/2000/svg" viewBox="0 0 1240 775" width="1240" height="775" role="img" aria-label="Villa Booking Website — placeholder screenshot">
  <rect width="1240" height="775" fill="#0E0F11"/>
  <rect x="0" y="0" width="1240" height="74" rx="0" fill="#17181B" fill-opacity="1"/><rect x="60" y="27" width="20" height="20" rx="5" fill="#B7F34A" fill-opacity="1"/><rect x="90" y="32" width="92" height="10" rx="5" fill="#3A3D42" fill-opacity="1"/><rect x="500" y="34" width="62" height="8" rx="4" fill="#3A3D42" fill-opacity="0.8"/><rect x="595" y="34" width="62" height="8" rx="4" fill="#3A3D42" fill-opacity="0.8"/><rect x="690" y="34" width="62" height="8" rx="4" fill="#3A3D42" fill-opacity="0.8"/><rect x="785" y="34" width="62" height="8" rx="4" fill="#3A3D42" fill-opacity="0.8"/><rect x="1050" y="24" width="130" height="26" rx="13" fill="#B7F34A" fill-opacity="1"/>
  <rect x="0" y="74" width="1240" height="360" rx="0" fill="#17181B" fill-opacity="1"/><rect x="60" y="140" width="540" height="32" rx="7" fill="#4A4E55" fill-opacity="1"/><rect x="60" y="188" width="430" height="32" rx="7" fill="#4A4E55" fill-opacity="1"/><rect x="60" y="242" width="330" height="16" rx="5" fill="#3A3D42" fill-opacity="1"/><rect x="60" y="296" width="150" height="42" rx="21" fill="#B7F34A" fill-opacity="1"/><rect x="230" y="296" width="134" height="42" rx="21" fill="none" stroke="#26282C" stroke-width="2" fill-opacity="1"/><rect x="680" y="124" width="500" height="260" rx="12" fill="#202226" fill-opacity="1"/><rect x="706" y="150" width="448" height="146" rx="8" fill="#26282C" fill-opacity="1"/><rect x="706" y="318" width="200" height="18" rx="5" fill="#3A3D42" fill-opacity="1"/><rect x="980" y="310" width="174" height="34" rx="17" fill="#B7F34A" fill-opacity="0.9"/><rect x="60" y="494" width="340" height="200" rx="10" fill="#17181B" fill-opacity="1"/><rect x="84" y="518" width="292" height="102" rx="8" fill="#26282C" fill-opacity="1"/><rect x="84" y="638" width="180" height="14" rx="5" fill="#3A3D42" fill-opacity="1"/><rect x="435" y="494" width="340" height="200" rx="10" fill="#17181B" fill-opacity="1"/><rect x="459" y="518" width="292" height="102" rx="8" fill="#26282C" fill-opacity="1"/><rect x="459" y="638" width="180" height="14" rx="5" fill="#3A3D42" fill-opacity="1"/><rect x="810" y="494" width="340" height="200" rx="10" fill="#17181B" fill-opacity="1"/><rect x="834" y="518" width="292" height="102" rx="8" fill="#26282C" fill-opacity="1"/><rect x="834" y="638" width="180" height="14" rx="5" fill="#3A3D42" fill-opacity="1"/>
  <g text-anchor="middle" font-family="'Source Sans 3','Segoe UI',sans-serif">
    <rect x="385" y="703" width="470" height="50" rx="25" fill="#0E0F11" fill-opacity=".85"/>
    <text x="620" y="736" font-size="19" font-weight="700" letter-spacing="2.6" fill="#6B6F76">PLACEHOLDER · VILLA BOOKING WEBSITE</text>
  </g>
</svg>