<svg xmlns="http://www.w3.org/2000/svg" viewBox="0 0 1240 775" width="1240" height="775" role="img" aria-label="Boutique Nayla — placeholder screenshot">
  <rect width="1240" height="775" fill="#0E0F11"/>
  <rect x="0" y="0" width="1240" height="74" rx="0" fill="#17181B" fill-opacity="1"/><rect x="60" y="27" width="20" height="20" rx="5" fill="#B7F34A" fill-opacity="1"/><rect x="90" y="32" width="92" height="10" rx="5" fill="#3A3D42" fill-opacity="1"/><rect x="500" y="34" width="62" height="8" rx="4" fill="#3A3D42" fill-opacity="0.8"/><rect x="595" y="34" width="62" height="8" rx="4" fill="#3A3D42" fill-opacity="0.8"/><rect x="690" y="34" width="62" height="8" rx="4" fill="#3A3D42" fill-opacity="0.8"/><rect x="785" y="34" width="62" height="8" rx="4" fill="#3A3D42" fill-opacity="0.8"/><rect x="1050" y="24" width="130" height="26" rx="13" fill="#B7F34A" fill-opacity="1"/>
  <rect x="0" y="74" width="1240" height="300" rx="0" fill="#17181B" fill-opacity="1"/><rect x="60" y="134" width="480" height="34" rx="7" fill="#4A4E55" fill-opacity="1"/><rect x="60" y="186" width="360" height="20" rx="5" fill="#3A3D42" fill-opacity="1"/><rect x="60" y="240" width="160" height="42" rx="21" fill="#B7F34A" fill-opacity="1"/><rect x="700" y="110" width="480" height="232" rx="12" fill="#202226" fill-opacity="1"/><rect x="60" y="420" width="258" height="296" rx="10" fill="#17181B" fill-opacity="1"/><rect x="80" y="440" width="218" height="186" rx="8" fill="#26282C" fill-opacity="1"/><rect x="80" y="644" width="148" height="14" rx="5" fill="#3A3D42" fill-opacity="1"/><rect x="80" y="670" width="86" height="14" rx="5" fill="#B7F34A" fill-opacity="0.85"/><rect x="350" y="420" width="258" height="296" rx="10" fill="#17181B" fill-opacity="1"/><rect x="370" y="440" width="218" height="186" rx="8" fill="#26282C" fill-opacity="1"/><rect x="370" y="644" width="148" height="14" rx="5" fill="#3A3D42" fill-opacity="1"/><rect x="370" y="670" width="86" height="14" rx="5" fill="#B7F34A" fill-opacity="0.85"/><rect x="640" y="420" width="258" height="296" rx="10" fill="#17181B" fill-opacity="1"/><rect x="660" y="440" width="218" height="186" rx="8" fill="#26282C" fill-opacity="1"/><rect x="660" y="644" width="148" height="14" rx="5" fill="#3A3D42" fill-opacity="1"/><rect x="660" y="670" width="86" height="14" rx="5" fill="#B7F34A" fill-opacity="0.85"/><rect x="930" y="420" width="258" height="296" rx="10" fill="#17181B" fill-opacity="1"/><rect x="950" y="440" width="218" height="186" rx="8" fill="#26282C" fill-opacity="1"/><rect x="950" y="644" width="148" height="14" rx="5" fill="#3A3D42" fill-opacity="1"/><rect x="950" y="670" width="86" height="14" rx="5" fill="#B7F34A" fill-opacity="0.85"/>
  <g text-anchor="middle" font-family="'Source Sans 3','Segoe UI',sans-serif">
    <rect x="385" y="703" width="470" height="50" rx="25" fill="#0E0F11" fill-opacity=".85"/>
    <text x="620" y="736" font-size="19" font-weight="700" letter-spacing="2.6" fill="#6B6F76">PLACEHOLDER · BOUTIQUE NAYLA</text>
  </g>
</svg>